<svg xmlns="http://www.w3.org/2000/svg" viewBox="0 0 136.109 21.263">
  <defs>
    <style>
      .cls-1 {
        fill: #4d4d4d;
      }

      .cls-2 {
        fill: #4e8eed;
      }
    </style>
  </defs>
  <g id="组_3991" data-name="组 3991" transform="translate(3952 2806)">
    <g id="组_3935" data-name="组 3935" transform="translate(-3818.12 -2806)">
      <rect id="矩形_148" data-name="矩形 148" class="cls-1" width="2.229" height="21.168" transform="translate(0 0)"/>
    </g>
    <g id="组_3938" data-name="组 3938" transform="translate(-3952 -2806)">
      <path id="路径_2332" data-name="路径 2332" class="cls-1" d="M26.256,21.168H2.972A2.908,2.908,0,0,1,0,18.321a3.388,3.388,0,0,1,1.982-3.095C14.243,9.408,23.036,5.075,23.9,4.456c.619-.619.5-1.114.5-1.114a1.232,1.232,0,0,0-.867-1.114H.5V0H23.9c3.468,0,3.963,4.7,1.61,5.942-.867.5-8.3,4.456-22.416,11.141A1.516,1.516,0,0,0,2.353,18.2a.693.693,0,0,0,.743.619H26.5v2.352Z"/>
    </g>
    <g id="组_3939" data-name="组 3939" transform="translate(-3920.543 -2806)">
      <path id="路径_2333" data-name="路径 2333" class="cls-1" d="M53.761,21.568H30.6a5.169,5.169,0,0,1-3.592-1.362A6.439,6.439,0,0,1,25.4,16V.4H47.569a5.992,5.992,0,0,1,6.069,6.066,5.519,5.519,0,0,1-1.486,4.085,6.644,6.644,0,0,1-4.582,1.609H30.106v-2.1H47.569a5.108,5.108,0,0,0,2.972-.99,3.19,3.19,0,0,0,.867-2.476c0-3.714-3.715-3.961-3.963-3.961H27.505V16c0,.371.124,3.342,2.972,3.342H53.513v2.228Z" transform="translate(-25.4 -0.4)"/>
    </g>
    <g id="组_3940" data-name="组 3940" transform="translate(-3886.484 -2806)">
      <path id="路径_2334" data-name="路径 2334" class="cls-1" d="M81.137,21.568H79.032V6.837a4.145,4.145,0,0,0-3.963-4.209H55.129v18.94H52.9V.4H75.193a6.138,6.138,0,0,1,5.945,6.313V21.568Z" transform="translate(-52.9 -0.4)"/>
    </g>
    <g id="组_3943" data-name="组 3943" transform="translate(-3852.922 -2806)">
      <g id="组_3937" data-name="组 3937" transform="translate(15.729 0)">
        <g id="组_3936" data-name="组 3936" transform="translate(0 0)">
          <path id="路径_2331" data-name="路径 2331" class="cls-2" d="M96.168,8.594H92.7L103.227.3h3.344Z" transform="translate(-92.7 -0.3)"/>
        </g>
      </g>
      <g id="组_3942" data-name="组 3942" transform="translate(0 0)">
        <g id="组_3941" data-name="组 3941" transform="translate(0 0)">
          <path id="路径_2335" data-name="路径 2335" class="cls-1" d="M106.38,21.568l-9.536-9.532a1.781,1.781,0,0,0-2.105.124L83.715,20.949a2.422,2.422,0,0,1-2.6.5A2.329,2.329,0,0,1,80,19.092V.4h2.229V19.34a.121.121,0,0,0,.124-.124L93.5,10.427a3.92,3.92,0,0,1,4.83.124h0l11.146,11.017Z" transform="translate(-80 -0.4)"/>
        </g>
      </g>
    </g>
  </g>
</svg>
