<svg id="图层_1" data-name="图层 1" xmlns="http://www.w3.org/2000/svg" xmlns:xlink="http://www.w3.org/1999/xlink" viewBox="0 0 40 40"><defs><style>.cls-1{fill:url(#未命名的渐变);}.cls-2{fill:#c2e0ff;}.cls-3{fill:#fff;}</style><linearGradient id="未命名的渐变" x1="-358.81" y1="-48.8" x2="-358.81" y2="-49.83" gradientTransform="matrix(27.42, -27.42, -27.42, -27.42, 8506.71, -11170.32)" gradientUnits="userSpaceOnUse"><stop offset="0" stop-color="#0f28f5"/><stop offset="0.05" stop-color="#2c2bf5"/><stop offset="0.21" stop-color="#8033f6"/><stop offset="0.32" stop-color="#b538f6"/><stop offset="0.37" stop-color="#ca3af6"/><stop offset="0.42" stop-color="#c439f6"/><stop offset="0.49" stop-color="#b338f6"/><stop offset="0.57" stop-color="#9735f6"/><stop offset="0.65" stop-color="#6f31f6"/><stop offset="0.74" stop-color="#3e2cf5"/><stop offset="0.82" stop-color="#0f28f5"/><stop offset="0.85" stop-color="#112cf5"/><stop offset="0.89" stop-color="#1636f5"/><stop offset="0.92" stop-color="#1e49f5"/><stop offset="0.94" stop-color="#2a62f6"/><stop offset="0.97" stop-color="#3983f6"/><stop offset="1" stop-color="#4cabf7"/><stop offset="1" stop-color="#4cacf7"/></linearGradient></defs><title>机器人摇头 icon -03</title><circle id="椭圆_600" data-name="椭圆 600" class="cls-1" cx="20" cy="20" r="20"/><path id="路径_4191" data-name="路径 4191" class="cls-2" d="M21.15,31.78l-2.59-.24.38-4.18,2.59.23ZM33.37,18.72a1,1,0,0,1,.91,1.08L33.9,24a1,1,0,0,1-1.08.9l-2.1-.18.57-6.28Zm-23,4.05-2.1-.19a1,1,0,0,1-.9-1.08l.37-4.19a1,1,0,0,1,1.09-.9l2.09.18ZM21.89,11.26a3.93,3.93,0,0,1,3.34,4.22l-7.87-.71a4,4,0,0,1,4-3.55L21.68,8l.5,0-.29,3.19Z"/><path id="路径_4192" data-name="路径 4192" class="cls-3" d="M17,21.87h0a1.26,1.26,0,0,1-1.17-1.41h0a1.31,1.31,0,0,1,1.41-1.18A1.3,1.3,0,1,1,17,21.87Zm7.87.7h0a1.26,1.26,0,0,1-1.18-1.41h0A1.34,1.34,0,0,1,25.13,20,1.33,1.33,0,0,1,26.3,21.4a1.31,1.31,0,0,1-1.41,1.17Zm-3-13.42h0A1.21,1.21,0,0,1,20.7,7.74h0a1.34,1.34,0,0,1,1.42-1.18,1.3,1.3,0,0,1-.24,2.59Zm-4.44,6.93A4.45,4.45,0,0,0,16.75,25l7.47.68a4.45,4.45,0,0,0,.69-8.88Zm11.68-2.56a4.22,4.22,0,0,1,3.81,4.56l-.67,7.37a4.21,4.21,0,0,1-4.55,3.8L12.47,27.88a4.22,4.22,0,0,1-3.81-4.56L9.32,16h0a4.22,4.22,0,0,1,4.56-3.8l15.24,1.37Z"/><path id="路径_4193" data-name="路径 4193" class="cls-2" d="M17.43,16.18l-.39,0a4.46,4.46,0,1,0-.3,8.91l7.37.67h.1a4.47,4.47,0,0,0,4.57-3.91,4.41,4.41,0,0,0-3.88-5Zm12.08,5.3a5.19,5.19,0,0,1-5.47,5l-7.37-.66a5.26,5.26,0,0,1,.94-10.46l7.37.67A5.22,5.22,0,0,1,29.51,21.48Z"/><path class="cls-3" d="M20.3,30.1a6.1,6.1,0,0,0-6.1,6,6.74,6.74,0,0,0,1,3.4,19.59,19.59,0,0,0,10.2-.2A6,6,0,0,0,23.5,31a4.77,4.77,0,0,0-3.2-.9Z"/></svg>