<svg id="图层_1" data-name="图层 1" xmlns="http://www.w3.org/2000/svg" xmlns:xlink="http://www.w3.org/1999/xlink" viewBox="0 0 40 40"><defs><style>.cls-1{fill:url(#未命名的渐变);}.cls-2{fill:#c2e0ff;}.cls-3{fill:#fff;}</style><linearGradient id="未命名的渐变" x1="-362.15" y1="-48.12" x2="-362.15" y2="-49.15" gradientTransform="matrix(27.42, -27.42, -27.42, -27.42, 8617.14, -11243.19)" gradientUnits="userSpaceOnUse"><stop offset="0" stop-color="#0f28f5"/><stop offset="0.05" stop-color="#2c2bf5"/><stop offset="0.21" stop-color="#8033f6"/><stop offset="0.32" stop-color="#b538f6"/><stop offset="0.37" stop-color="#ca3af6"/><stop offset="0.42" stop-color="#c439f6"/><stop offset="0.49" stop-color="#b338f6"/><stop offset="0.57" stop-color="#9735f6"/><stop offset="0.65" stop-color="#6f31f6"/><stop offset="0.74" stop-color="#3e2cf5"/><stop offset="0.82" stop-color="#0f28f5"/><stop offset="0.85" stop-color="#112cf5"/><stop offset="0.89" stop-color="#1636f5"/><stop offset="0.92" stop-color="#1e49f5"/><stop offset="0.94" stop-color="#2a62f6"/><stop offset="0.97" stop-color="#3983f6"/><stop offset="1" stop-color="#4cabf7"/><stop offset="1" stop-color="#4cacf7"/></linearGradient></defs><title>机器人摇头 icon -03</title><circle id="椭圆_600" data-name="椭圆 600" class="cls-1" cx="20" cy="20" r="20"/><path id="路径_4191" data-name="路径 4191" class="cls-2" d="M18.18,28.33l2.59-.24.37,4.19-2.59.23ZM8.42,19.16,9,25.44l-2.09.19a1,1,0,0,1-1.09-.91l-.37-4.18a1,1,0,0,1,.9-1.09Zm20.42-1.83,2.09-.19a1,1,0,0,1,1.08.91l.38,4.18a1,1,0,0,1-.91,1.08l-2.09.19ZM17.81,12l-.28-3.18L18,8.76,18.31,12a4,4,0,0,1,4,3.55l-7.87.71A3.94,3.94,0,0,1,17.81,12Z"/><path id="路径_4192" data-name="路径 4192" class="cls-3" d="M22.68,22.6a1.3,1.3,0,1,1,1.18-1.41h0a1.26,1.26,0,0,1-1.18,1.41Zm-7.87.71A1.3,1.3,0,1,1,16,21.9h0a1.26,1.26,0,0,1-1.18,1.41Zm3-13.43A1.3,1.3,0,1,1,19,8.47h0a1.2,1.2,0,0,1-1.18,1.41Zm-3,7.61a4.45,4.45,0,0,0,.7,8.87L23,25.69a4.45,4.45,0,0,0-.7-8.88Zm-4.2-3.24,15.23-1.37a4.22,4.22,0,0,1,4.56,3.81h0l.67,7.37a4.24,4.24,0,0,1-3.81,4.56L12,30a4.24,4.24,0,0,1-4.56-3.81l-.66-7.37a4.23,4.23,0,0,1,3.81-4.56Z"/><path id="路径_4193" data-name="路径 4193" class="cls-2" d="M14.8,17.59a4.39,4.39,0,0,0-3.87,5,4.46,4.46,0,0,0,4.57,3.91h.1L23,25.79a4.46,4.46,0,0,0-.3-8.91l-.4,0Zm-.07-.8,7.37-.66A5.25,5.25,0,0,1,23,26.58l-7.37.67a5.26,5.26,0,0,1-.94-10.46Z"/><path class="cls-3" d="M20.2,30.1a6.1,6.1,0,0,0-6.1,6,6.74,6.74,0,0,0,1,3.4,19.59,19.59,0,0,0,10.2-.2A6,6,0,0,0,23.4,31a4.49,4.49,0,0,0-3.2-.9Z"/></svg>