<svg id="图层_1" data-name="图层 1" xmlns="http://www.w3.org/2000/svg" xmlns:xlink="http://www.w3.org/1999/xlink" viewBox="0 0 40 40"><defs><style>.cls-1{fill:url(#未命名的渐变);}.cls-2{fill:#c2e0ff;}.cls-3{fill:#fff;}</style><linearGradient id="未命名的渐变" x1="-316.66" y1="-47.28" x2="-316.66" y2="-48.31" gradientTransform="matrix(27.42, -27.42, -27.42, -27.42, 7393.01, -9972.73)" gradientUnits="userSpaceOnUse"><stop offset="0" stop-color="#0f28f5"/><stop offset="0.05" stop-color="#2c2bf5"/><stop offset="0.21" stop-color="#8033f6"/><stop offset="0.32" stop-color="#b538f6"/><stop offset="0.37" stop-color="#ca3af6"/><stop offset="0.42" stop-color="#c439f6"/><stop offset="0.49" stop-color="#b338f6"/><stop offset="0.57" stop-color="#9735f6"/><stop offset="0.65" stop-color="#6f31f6"/><stop offset="0.74" stop-color="#3e2cf5"/><stop offset="0.82" stop-color="#0f28f5"/><stop offset="0.85" stop-color="#112cf5"/><stop offset="0.89" stop-color="#1636f5"/><stop offset="0.92" stop-color="#1e49f5"/><stop offset="0.94" stop-color="#2a62f6"/><stop offset="0.97" stop-color="#3983f6"/><stop offset="1" stop-color="#4cabf7"/><stop offset="1" stop-color="#4cacf7"/></linearGradient></defs><title>机器人摇头 icon -03</title><circle id="椭圆_600" data-name="椭圆 600" class="cls-1" cx="20" cy="20" r="20"/><path id="路径_4191" data-name="路径 4191" class="cls-2" d="M18.07,28.4l2.43-.94L22,31.38l-2.43.94ZM6.18,22.26l2.26,5.88-2,.75a1,1,0,0,1-1.29-.57L3.68,24.4a1,1,0,0,1,.57-1.3ZM25.31,14.9l2-.75a1,1,0,0,1,1.3.57l1.5,3.92a1,1,0,0,1-.57,1.29l-2,.76ZM13.25,12.79l-1.15-3,.47-.18,1.15,3a4,4,0,0,1,4.85,2.31L11.2,17.76a3.94,3.94,0,0,1,2.05-5Z"/><path id="路径_4192" data-name="路径 4192" class="cls-3" d="M20.84,21.66A1.3,1.3,0,1,1,21.59,20h0a1.26,1.26,0,0,1-.75,1.68Zm-7.37,2.83a1.3,1.3,0,1,1,.74-1.68h0a1.27,1.27,0,0,1-.74,1.68Zm-.79-13.73a1.3,1.3,0,1,1,.75-1.68h0a1.2,1.2,0,0,1-.75,1.68Zm-.83,8.14A4.45,4.45,0,0,0,15,27.24l7-2.69a4.45,4.45,0,0,0-3.1-8.34Zm-4.93-2L21.2,11.45a4.22,4.22,0,0,1,5.43,2.41h0l2.65,6.91a4.21,4.21,0,0,1-2.41,5.42l-14.28,5.5a4.23,4.23,0,0,1-5.43-2.42l-2.65-6.9a4.22,4.22,0,0,1,2.41-5.43Z"/><path id="路径_4193" data-name="路径 4193" class="cls-2" d="M11.89,19a4.4,4.4,0,0,0-2.37,5.84A4.45,4.45,0,0,0,15,27.33l.09,0L22,24.64a4.45,4.45,0,1,0-2.73-8.48l-.37.14Zm-.29-.75,6.91-2.65a5.25,5.25,0,0,1,3.76,9.8l-6.9,2.66a5.26,5.26,0,0,1-3.77-9.81Z"/><path class="cls-3" d="M20.2,30.1a6.1,6.1,0,0,0-6.1,6,6.74,6.74,0,0,0,1,3.4,19.59,19.59,0,0,0,10.2-.2A6,6,0,0,0,23.4,31a4.49,4.49,0,0,0-3.2-.9Z"/></svg>