<svg id="图层_1" data-name="图层 1" xmlns="http://www.w3.org/2000/svg" xmlns:xlink="http://www.w3.org/1999/xlink" viewBox="0 0 40 40"><defs><style>.cls-1{fill:url(#未命名的渐变);}.cls-2{fill:#c2e0ff;}.cls-3{fill:#fff;}</style><linearGradient id="未命名的渐变" x1="-410.19" y1="-49.76" x2="-410.19" y2="-50.79" gradientTransform="matrix(27.42, -27.42, -27.42, -27.42, 9889.36, -12605.3)" gradientUnits="userSpaceOnUse"><stop offset="0" stop-color="#0f28f5"/><stop offset="0.05" stop-color="#2c2bf5"/><stop offset="0.21" stop-color="#8033f6"/><stop offset="0.32" stop-color="#b538f6"/><stop offset="0.37" stop-color="#ca3af6"/><stop offset="0.42" stop-color="#c439f6"/><stop offset="0.49" stop-color="#b338f6"/><stop offset="0.57" stop-color="#9735f6"/><stop offset="0.65" stop-color="#6f31f6"/><stop offset="0.74" stop-color="#3e2cf5"/><stop offset="0.82" stop-color="#0f28f5"/><stop offset="0.85" stop-color="#112cf5"/><stop offset="0.89" stop-color="#1636f5"/><stop offset="0.92" stop-color="#1e49f5"/><stop offset="0.94" stop-color="#2a62f6"/><stop offset="0.97" stop-color="#3983f6"/><stop offset="1" stop-color="#4cabf7"/><stop offset="1" stop-color="#4cacf7"/></linearGradient></defs><title>机器人摇头 icon -03</title><circle id="椭圆_600" data-name="椭圆 600" class="cls-1" cx="20" cy="20" r="20"/><path id="路径_4191" data-name="路径 4191" class="cls-2" d="M20.73,31.58l-2.42-.93,1.5-3.92,2.43.93Zm15.33-9.21a1,1,0,0,1,.57,1.29l-1.5,3.92a1,1,0,0,1-1.3.58l-2-.76,2.27-5.88ZM12.78,20l-2-.75a1,1,0,0,1-.58-1.29L11.75,14A1,1,0,0,1,13,13.41l2,.76Zm14.28-7.89a3.93,3.93,0,0,1,2.06,5l-7.38-2.83a4,4,0,0,1,4.86-2.31l1.14-3,.47.18-1.15,3Z"/><path id="路径_4192" data-name="路径 4192" class="cls-3" d="M19.47,20.92h0a1.26,1.26,0,0,1-.74-1.68h0a1.3,1.3,0,1,1,.74,1.68Zm7.38,2.84h0a1.26,1.26,0,0,1-.75-1.68h0a1.3,1.3,0,1,1,.75,1.68ZM27.63,10h0a1.21,1.21,0,0,1-.75-1.68h0A1.3,1.3,0,1,1,27.63,10Zm-6.17,5.45a4.45,4.45,0,0,0-3.1,8.35l7,2.69a4.45,4.45,0,0,0,3.1-8.35Zm11.94.73a4.24,4.24,0,0,1,2.41,5.43l-2.66,6.91A4.21,4.21,0,0,1,27.73,31L13.44,25.46A4.23,4.23,0,0,1,11,20l2.66-6.9h0a4.22,4.22,0,0,1,5.42-2.42L33.4,16.2Z"/><path id="路径_4193" data-name="路径 4193" class="cls-2" d="M21.43,15.57l-.38-.15a4.46,4.46,0,0,0-2.72,8.49l6.9,2.66.1,0a4.45,4.45,0,0,0,5.46-2.51,4.4,4.4,0,0,0-2.36-5.83ZM31.59,24A5.19,5.19,0,0,1,25,27.31L18,24.66a5.26,5.26,0,0,1,3.77-9.8l6.9,2.65A5.23,5.23,0,0,1,31.59,24Z"/><path class="cls-3" d="M20.3,30.1a6.1,6.1,0,0,0-6.1,6,6.74,6.74,0,0,0,1,3.4,19.59,19.59,0,0,0,10.2-.2A6,6,0,0,0,23.5,31a4.77,4.77,0,0,0-3.2-.9Z"/></svg>